<?xml version="1.0" standalone="no"?><!-- Generator: Gravit.io --><svg xmlns="http://www.w3.org/2000/svg" xmlns:xlink="http://www.w3.org/1999/xlink" style="isolation:isolate" viewBox="0 0 1280 800" width="1280" height="800"><defs><clipPath id="_clipPath_y3JHMqsDsZd7wWcGjVujbMhWvCowJ2Rz"><rect width="1280" height="800"/></clipPath></defs><g clip-path="url(#_clipPath_y3JHMqsDsZd7wWcGjVujbMhWvCowJ2Rz)"><rect x="195" y="74" width="890" height="51" transform="matrix(1,0,0,1,0,0)" fill="none" vector-effect="non-scaling-stroke" stroke-width="2" stroke="rgb(61,90,106)" stroke-linejoin="miter" stroke-linecap="square" stroke-miterlimit="3"/><g transform="matrix(1,0,0,1,213,80)"><text transform="matrix(1,0,0,1,221.881,32.065)" style="font-family:&quot;Open Sans&quot;;font-weight:400;font-size:30px;font-style:normal;fill:#a4a4a4;stroke:none;">Paste or type your link here...</text></g><g transform="matrix(1,0,0,1,405.5,28)"><text transform="matrix(1,0,0,1,0,21.377)" style="font-family:&quot;Open Sans&quot;;font-weight:400;font-size:20px;font-style:normal;fill:#000000;stroke:none;">Dasher - A place to share links with other people...</text></g><path d="M 204 199 L 1080 199 C 1082.76 199 1085 201.24 1085 204 L 1085 258 C 1085 260.76 1082.76 263 1080 263 L 204 263 C 201.24 263 199 260.76 199 258 L 199 204 C 199 201.24 201.24 199 204 199 Z" style="fill:none;stroke:#3D5A6A;stroke-width:1;stroke-linecap:square;stroke-miterlimit:3;"/><path d="M 204 279 L 1080 279 C 1082.76 279 1085 281.24 1085 284 L 1085 338 C 1085 340.76 1082.76 343 1080 343 L 204 343 C 201.24 343 199 340.76 199 338 L 199 284 C 199 281.24 201.24 279 204 279 Z" style="fill:none;stroke:#3D5A6A;stroke-width:1;stroke-linecap:square;stroke-miterlimit:3;"/><path d="M 204 359 L 1080 359 C 1082.76 359 1085 361.24 1085 364 L 1085 418 C 1085 420.76 1082.76 423 1080 423 L 204 423 C 201.24 423 199 420.76 199 418 L 199 364 C 199 361.24 201.24 359 204 359 Z" style="fill:none;stroke:#3D5A6A;stroke-width:1;stroke-linecap:square;stroke-miterlimit:3;"/><path d="M 204 439 L 1080 439 C 1082.76 439 1085 441.24 1085 444 L 1085 498 C 1085 500.76 1082.76 503 1080 503 L 204 503 C 201.24 503 199 500.76 199 498 L 199 444 C 199 441.24 201.24 439 204 439 Z" style="fill:none;stroke:#3D5A6A;stroke-width:1;stroke-linecap:square;stroke-miterlimit:3;"/><path d="M 204 519 L 1080 519 C 1082.76 519 1085 521.24 1085 524 L 1085 578 C 1085 580.76 1082.76 583 1080 583 L 204 583 C 201.24 583 199 580.76 199 578 L 199 524 C 199 521.24 201.24 519 204 519 Z" style="fill:none;stroke:#3D5A6A;stroke-width:1;stroke-linecap:square;stroke-miterlimit:3;"/><path d="M 204 599 L 1080 599 C 1082.76 599 1085 601.24 1085 604 L 1085 658 C 1085 660.76 1082.76 663 1080 663 L 204 663 C 201.24 663 199 660.76 199 658 L 199 604 C 199 601.24 201.24 599 204 599 Z" style="fill:none;stroke:#3D5A6A;stroke-width:1;stroke-linecap:square;stroke-miterlimit:3;"/><g transform="matrix(1,0,0,1,213,217.382)"><text transform="matrix(1,0,0,1,0,21.377)" style="font-family:&quot;Open Sans&quot;;font-weight:400;font-size:20px;font-style:normal;fill:#000000;stroke:none;">Title of the website</text></g><g transform="matrix(1,0,0,1,213,297.382)"><text transform="matrix(1,0,0,1,0,21.377)" style="font-family:&quot;Open Sans&quot;;font-weight:400;font-size:20px;font-style:normal;fill:#000000;stroke:none;">Title of the website</text></g><g transform="matrix(1,0,0,1,213,377.382)"><text transform="matrix(1,0,0,1,0,21.377)" style="font-family:&quot;Open Sans&quot;;font-weight:400;font-size:20px;font-style:normal;fill:#000000;stroke:none;">Title of the website</text></g><g transform="matrix(1,0,0,1,213,457.382)"><text transform="matrix(1,0,0,1,0,21.377)" style="font-family:&quot;Open Sans&quot;;font-weight:400;font-size:20px;font-style:normal;fill:#000000;stroke:none;">Title of the website</text></g><g transform="matrix(1,0,0,1,213,537.382)"><text transform="matrix(1,0,0,1,0,21.377)" style="font-family:&quot;Open Sans&quot;;font-weight:400;font-size:20px;font-style:normal;fill:#000000;stroke:none;">Title of the website</text></g><g transform="matrix(1,0,0,1,213,617.382)"><text transform="matrix(1,0,0,1,0,21.377)" style="font-family:&quot;Open Sans&quot;;font-weight:400;font-size:20px;font-style:normal;fill:#000000;stroke:none;">Title of the website</text></g><g transform="matrix(1,0,0,1,506,212.52)"><text transform="matrix(1,0,0,1,0,12.826)" style="font-family:&quot;Open Sans&quot;;font-weight:400;font-size:12px;font-style:normal;fill:#000000;stroke:none;">The description of the site fetched from the meta data</text></g><g transform="matrix(1,0,0,1,506,292.52)"><text transform="matrix(1,0,0,1,0,12.826)" style="font-family:&quot;Open Sans&quot;;font-weight:400;font-size:12px;font-style:normal;fill:#000000;stroke:none;">The description of the site fetched from the meta data</text></g><g transform="matrix(1,0,0,1,506,372.52)"><text transform="matrix(1,0,0,1,0,12.826)" style="font-family:&quot;Open Sans&quot;;font-weight:400;font-size:12px;font-style:normal;fill:#000000;stroke:none;">The description of the site fetched from the meta data</text></g><g transform="matrix(1,0,0,1,506,452.52)"><text transform="matrix(1,0,0,1,0,12.826)" style="font-family:&quot;Open Sans&quot;;font-weight:400;font-size:12px;font-style:normal;fill:#000000;stroke:none;">The description of the site fetched from the meta data</text></g><g transform="matrix(1,0,0,1,506,532.52)"><text transform="matrix(1,0,0,1,0,12.826)" style="font-family:&quot;Open Sans&quot;;font-weight:400;font-size:12px;font-style:normal;fill:#000000;stroke:none;">The description of the site fetched from the meta data</text></g><g transform="matrix(1,0,0,1,506,612.52)"><text transform="matrix(1,0,0,1,0,12.826)" style="font-family:&quot;Open Sans&quot;;font-weight:400;font-size:12px;font-style:normal;fill:#000000;stroke:none;">The description of the site fetched from the meta data</text></g><g id="Group" style="mix-blend-mode:multiply;"><path d=" M 1066.5 232.386 C 1066.5 240.119 1060.233 246.386 1052.5 246.386 C 1044.767 246.386 1038.5 240.119 1038.5 232.386 C 1038.5 224.654 1044.767 218.386 1052.5 218.386 C 1060.233 218.386 1066.5 224.654 1066.5 232.386 Z " fill="rgb(114,202,175)"/><path d=" M 1043.355 243.031 C 1044.68 244.293 1046.239 245.281 1047.945 245.941 L 1065 228.886 L 1065 225.671 C 1064.472 224.796 1063.85 223.981 1063.145 223.241 L 1043.355 243.031 Z  M 1042.381 242.005 L 1062 222.386 L 1059 222.386 L 1041.11 240.277 C 1041.489 240.884 1041.914 241.462 1042.381 242.005 Z " fill="rgb(125,216,186)"/><path d=" M 1060.164 240.277 C 1055.844 244.476 1048.949 244.418 1044.699 240.146 C 1045.234 239.041 1046.25 237.421 1047.635 237.335 C 1047.635 237.335 1050.414 238.722 1052.53 238.392 C 1054.163 238.096 1055.776 237.698 1057.36 237.201 C 1058.642 237.845 1059.641 238.94 1060.165 240.277 L 1060.164 240.277 Z " fill="rgb(194,205,231)"/><path d=" M 1040.895 238.491 L 1057.5 221.886 L 1056 220.886 L 1040.18 236.706 C 1040.377 237.317 1040.616 237.913 1040.895 238.491 L 1040.895 238.491 Z " fill="rgb(125,216,186)"/><path d=" M 1045.93 231.681 L 1047.6 225.13 L 1051.506 228.947 L 1045.93 231.681 Z  M 1053.51 228.947 L 1057.15 225.252 L 1058.135 226.922 L 1058.94 231.252 L 1053.51 228.947 Z " fill="rgb(206,216,237)"/><path d=" M 1059.5 233.386 C 1059.5 230.625 1056.365 228.386 1052.5 228.386 C 1048.635 228.386 1045.5 230.625 1045.5 233.386 C 1045.5 236.148 1048.635 238.386 1052.5 238.386 C 1056.365 238.386 1059.5 236.148 1059.5 233.386 Z " fill="rgb(181,196,224)"/><path d=" M 1052.5 218.386 C 1044.767 218.386 1038.5 224.654 1038.5 232.386 C 1038.5 240.119 1044.767 246.386 1052.5 246.386 C 1060.233 246.386 1066.5 240.119 1066.5 232.386 C 1066.5 224.654 1060.233 218.386 1052.5 218.386 Z  M 1052.5 243.386 C 1047.554 243.386 1043.216 240.086 1041.897 235.32 C 1040.578 230.553 1042.602 225.493 1046.844 222.951 C 1051.087 220.408 1056.505 221.01 1060.086 224.421 L 1060.426 224.755 C 1063.556 228.007 1064.383 232.84 1062.512 236.947 C 1060.724 240.869 1056.811 243.386 1052.5 243.386 Z " fill="rgb(249,227,174)"/><path d=" M 1066.305 234.741 C 1065.168 241.48 1059.334 246.414 1052.5 246.414 C 1045.667 246.414 1039.832 241.48 1038.695 234.741 C 1038.588 234.153 1038.751 233.547 1039.139 233.091 C 1039.526 232.635 1040.097 232.377 1040.696 232.386 L 1041.5 232.386 C 1041.5 238.46 1046.426 243.386 1052.5 243.386 C 1058.574 243.386 1063.5 238.46 1063.5 232.386 L 1064.33 232.386 C 1064.924 232.384 1065.488 232.645 1065.87 233.101 C 1066.251 233.556 1066.411 234.157 1066.305 234.741 Z " fill="rgb(246,211,151)"/><path d=" M 1052.5 217.886 C 1044.492 217.886 1038 224.378 1038 232.386 C 1038 240.394 1044.492 246.886 1052.5 246.886 C 1060.508 246.886 1067 240.394 1067 232.386 C 1067 224.378 1060.508 217.886 1052.5 217.886 Z  M 1052.5 245.886 C 1045.045 245.886 1039 239.841 1039 232.386 C 1039 224.931 1045.045 218.886 1052.5 218.886 C 1059.955 218.886 1066 224.931 1066 232.386 C 1066 239.841 1059.955 245.886 1052.5 245.886 Z " fill="rgb(141,108,159)"/><path d=" M 1052.5 241.886 C 1052.225 241.886 1052 242.111 1052 242.386 L 1052 243.386 C 1052 243.661 1052.225 243.886 1052.5 243.886 C 1052.775 243.886 1053 243.661 1053 243.386 L 1053 242.386 C 1053 242.111 1052.775 241.886 1052.5 241.886 Z  M 1055.5 241.925 C 1055.425 241.662 1055.152 241.507 1054.888 241.579 C 1054.624 241.651 1054.466 241.922 1054.535 242.187 L 1054.795 243.152 C 1054.879 243.408 1055.148 243.552 1055.407 243.481 C 1055.666 243.41 1055.823 243.148 1055.765 242.886 L 1055.5 241.925 Z  M 1047.875 240.646 C 1047.76 240.58 1047.623 240.562 1047.494 240.595 C 1047.365 240.63 1047.256 240.716 1047.189 240.832 L 1046.689 241.697 C 1046.569 241.934 1046.655 242.224 1046.885 242.357 C 1047.115 242.49 1047.409 242.42 1047.555 242.197 L 1048.055 241.332 C 1048.122 241.217 1048.141 241.08 1048.107 240.952 C 1048.073 240.823 1047.99 240.713 1047.875 240.646 Z  M 1057.811 240.831 C 1057.667 240.605 1057.37 240.533 1057.139 240.667 C 1056.906 240.801 1056.82 241.094 1056.946 241.332 L 1057.446 242.197 C 1057.589 242.423 1057.886 242.496 1058.118 242.361 C 1058.35 242.227 1058.435 241.934 1058.311 241.697 L 1057.811 240.831 Z  M 1050.105 241.572 C 1049.839 241.501 1049.566 241.659 1049.494 241.925 L 1049.234 242.886 C 1049.18 243.061 1049.226 243.252 1049.354 243.383 C 1049.482 243.514 1049.671 243.565 1049.848 243.515 C 1050.023 243.466 1050.158 243.324 1050.199 243.146 L 1050.461 242.181 C 1050.53 241.915 1050.371 241.643 1050.106 241.572 L 1050.105 241.572 Z  M 1056.176 222.546 C 1056.533 222.681 1056.883 222.834 1057.225 223.005 C 1057.473 223.13 1057.774 223.031 1057.899 222.785 C 1058.022 222.537 1057.922 222.236 1057.676 222.111 C 1057.302 221.924 1056.918 221.757 1056.526 221.611 C 1056.356 221.536 1056.159 221.562 1056.014 221.677 C 1055.867 221.791 1055.797 221.978 1055.832 222.16 C 1055.865 222.343 1055.998 222.492 1056.176 222.546 Z " fill="rgb(141,108,159)"/><path d=" M 1060.631 224.255 C 1060.301 223.925 1059.951 223.615 1059.586 223.325 C 1059.446 223.2 1059.248 223.162 1059.073 223.228 C 1058.897 223.293 1058.772 223.452 1058.752 223.638 C 1058.73 223.824 1058.815 224.007 1058.971 224.111 C 1059.305 224.376 1059.624 224.66 1059.926 224.961 C 1063.846 228.892 1064.03 235.195 1060.346 239.347 C 1059.886 238.362 1059.107 237.56 1058.135 237.072 C 1059.465 236.072 1060.44 234.791 1059.725 231.957 L 1058.346 225.857 C 1058.761 225.385 1058.79 224.688 1058.415 224.183 C 1058.04 223.679 1057.363 223.506 1056.792 223.769 C 1056.221 224.032 1055.912 224.658 1056.051 225.271 L 1053.686 227.951 L 1053.366 227.951 C 1053.085 227.886 1052.8 227.886 1052.5 227.886 C 1052.27 227.886 1052.035 227.886 1051.805 227.911 L 1051.336 227.911 L 1048.949 225.271 C 1048.619 224.897 1048.106 224.738 1047.622 224.862 C 1047.138 224.985 1046.764 225.37 1046.654 225.857 L 1045.276 231.941 C 1044.571 234.752 1045.506 236.041 1046.811 237.027 C 1045.833 237.492 1045.042 238.274 1044.565 239.246 C 1041.684 235.909 1041.196 231.126 1043.343 227.275 C 1045.488 223.424 1049.811 221.324 1054.165 222.018 C 1054.437 222.055 1054.689 221.868 1054.733 221.596 C 1054.776 221.324 1054.595 221.068 1054.325 221.018 C 1049.394 220.215 1044.51 222.688 1042.238 227.136 C 1039.966 231.585 1040.825 236.992 1044.365 240.517 C 1044.418 240.556 1044.477 240.591 1044.535 240.621 C 1044.586 240.628 1044.639 240.628 1044.69 240.621 C 1044.75 240.621 1044.809 240.609 1044.865 240.586 L 1044.91 240.586 C 1044.95 240.568 1044.987 240.545 1045.02 240.517 L 1045.045 240.517 C 1045.072 240.485 1045.095 240.449 1045.115 240.412 C 1045.125 240.396 1045.133 240.378 1045.141 240.361 C 1045.498 239.122 1046.463 238.152 1047.699 237.787 C 1047.724 237.777 1047.747 237.766 1047.77 237.752 C 1049.22 238.537 1050.851 238.929 1052.5 238.886 C 1054.109 238.906 1055.696 238.513 1057.11 237.746 C 1058.342 238.115 1059.303 239.085 1059.66 240.322 C 1059.73 240.537 1059.934 240.677 1060.16 240.666 L 1060.301 240.666 C 1060.434 240.667 1060.561 240.615 1060.655 240.521 C 1065.141 236.023 1065.129 228.74 1060.631 224.256 L 1060.631 224.255 Z  M 1048 236.63 C 1046.57 235.675 1045.61 234.8 1046.27 232.175 L 1047.65 226.082 C 1047.676 225.96 1047.769 225.864 1047.891 225.835 L 1047.975 225.835 C 1048.069 225.835 1048.158 225.875 1048.22 225.947 L 1050.186 228.172 C 1049.905 228.236 1049.631 228.316 1049.366 228.406 C 1049.002 228.528 1048.648 228.676 1048.305 228.847 C 1048.066 228.974 1047.973 229.268 1048.094 229.509 C 1048.213 229.751 1048.504 229.853 1048.75 229.742 C 1049.055 229.589 1049.369 229.46 1049.69 229.351 C 1050.277 229.151 1050.884 229.016 1051.5 228.946 L 1051.805 228.915 L 1052.525 228.915 C 1052.775 228.915 1053.025 228.915 1053.275 228.95 L 1053.506 228.95 C 1054.295 229.032 1055.069 229.224 1055.805 229.52 C 1056.127 229.653 1056.44 229.812 1056.74 229.991 C 1056.974 230.097 1057.25 230.009 1057.379 229.786 C 1057.507 229.564 1057.447 229.281 1057.24 229.13 C 1056.899 228.926 1056.543 228.748 1056.176 228.597 C 1055.734 228.419 1055.279 228.276 1054.815 228.171 L 1056.801 225.937 C 1056.882 225.844 1057.009 225.804 1057.129 225.833 C 1057.249 225.864 1057.342 225.96 1057.369 226.081 L 1058.756 232.186 C 1059.414 234.8 1058.449 235.686 1057.026 236.63 C 1055.671 237.48 1054.099 237.917 1052.5 237.886 C 1050.91 237.911 1049.348 237.476 1048 236.63 Z " fill="rgb(141,108,159)"/><path d=" M 1054.145 234.531 L 1053.85 234.826 C 1053.757 234.92 1053.63 234.972 1053.498 234.972 C 1053.365 234.972 1053.238 234.92 1053.145 234.826 L 1053 234.681 L 1053 233.746 C 1053.391 233.519 1053.581 233.058 1053.464 232.622 C 1053.347 232.185 1052.952 231.882 1052.5 231.881 C 1052.047 231.881 1051.65 232.185 1051.533 232.621 C 1051.416 233.058 1051.608 233.52 1052 233.746 L 1052 234.676 L 1051.855 234.822 C 1051.66 235.015 1051.345 235.015 1051.15 234.822 L 1050.855 234.527 C 1050.656 234.358 1050.361 234.369 1050.176 234.552 C 1049.992 234.738 1049.981 235.034 1050.151 235.232 L 1050.446 235.527 C 1051.009 236.088 1051.913 236.112 1052.506 235.582 C 1053.098 236.113 1054.001 236.088 1054.565 235.527 L 1054.86 235.232 C 1055.03 235.033 1055.018 234.738 1054.834 234.552 C 1054.648 234.368 1054.353 234.357 1054.154 234.527 L 1054.145 234.531 Z " fill="rgb(141,108,159)"/></g><g id="Group" style="mix-blend-mode:multiply;"><path d=" M 1066.5 312.386 C 1066.5 320.119 1060.233 326.386 1052.5 326.386 C 1044.767 326.386 1038.5 320.119 1038.5 312.386 C 1038.5 304.654 1044.767 298.386 1052.5 298.386 C 1060.233 298.386 1066.5 304.654 1066.5 312.386 Z " fill="rgb(114,202,175)"/><path d=" M 1043.355 323.031 C 1044.68 324.293 1046.239 325.281 1047.945 325.941 L 1065 308.886 L 1065 305.671 C 1064.472 304.796 1063.85 303.981 1063.145 303.241 L 1043.355 323.031 Z  M 1042.381 322.005 L 1062 302.386 L 1059 302.386 L 1041.109 320.277 C 1041.489 320.884 1041.914 321.462 1042.381 322.005 Z " fill="rgb(125,216,186)"/><path d=" M 1060.164 320.277 C 1055.844 324.476 1048.949 324.418 1044.699 320.146 C 1045.234 319.041 1046.25 317.421 1047.635 317.335 C 1047.635 317.335 1050.414 318.722 1052.53 318.392 C 1054.163 318.096 1055.776 317.698 1057.36 317.201 C 1058.642 317.845 1059.641 318.94 1060.164 320.277 L 1060.164 320.277 Z " fill="rgb(194,205,231)"/><path d=" M 1040.895 318.491 L 1057.5 301.886 L 1056 300.886 L 1040.18 316.706 C 1040.377 317.317 1040.616 317.913 1040.895 318.491 L 1040.895 318.491 Z " fill="rgb(125,216,186)"/><path d=" M 1045.93 311.681 L 1047.6 305.13 L 1051.506 308.947 L 1045.93 311.681 Z  M 1053.51 308.947 L 1057.15 305.252 L 1058.135 306.922 L 1058.94 311.252 L 1053.51 308.947 Z " fill="rgb(206,216,237)"/><path d=" M 1059.5 313.386 C 1059.5 310.625 1056.365 308.386 1052.5 308.386 C 1048.635 308.386 1045.5 310.625 1045.5 313.386 C 1045.5 316.148 1048.635 318.386 1052.5 318.386 C 1056.365 318.386 1059.5 316.148 1059.5 313.386 Z " fill="rgb(181,196,224)"/><path d=" M 1052.5 298.386 C 1044.767 298.386 1038.5 304.654 1038.5 312.386 C 1038.5 320.119 1044.767 326.386 1052.5 326.386 C 1060.233 326.386 1066.5 320.119 1066.5 312.386 C 1066.5 304.654 1060.233 298.386 1052.5 298.386 Z  M 1052.5 323.386 C 1047.554 323.386 1043.216 320.086 1041.897 315.32 C 1040.578 310.553 1042.602 305.493 1046.844 302.951 C 1051.087 300.408 1056.505 301.01 1060.086 304.421 L 1060.426 304.755 C 1063.556 308.007 1064.383 312.84 1062.512 316.947 C 1060.724 320.869 1056.811 323.386 1052.5 323.386 Z " fill="rgb(249,227,174)"/><path d=" M 1066.305 314.741 C 1065.167 321.48 1059.333 326.414 1052.5 326.414 C 1045.667 326.414 1039.832 321.48 1038.695 314.741 C 1038.588 314.153 1038.751 313.547 1039.138 313.091 C 1039.526 312.635 1040.097 312.377 1040.695 312.386 L 1041.5 312.386 C 1041.5 318.46 1046.426 323.386 1052.5 323.386 C 1058.574 323.386 1063.5 318.46 1063.5 312.386 L 1064.33 312.386 C 1064.924 312.384 1065.488 312.645 1065.87 313.101 C 1066.251 313.556 1066.411 314.157 1066.305 314.741 Z " fill="rgb(246,211,151)"/><path d=" M 1052.5 297.886 C 1044.492 297.886 1038 304.378 1038 312.386 C 1038 320.394 1044.492 326.886 1052.5 326.886 C 1060.508 326.886 1067 320.394 1067 312.386 C 1067 304.378 1060.508 297.886 1052.5 297.886 Z  M 1052.5 325.886 C 1045.045 325.886 1039 319.841 1039 312.386 C 1039 304.931 1045.045 298.886 1052.5 298.886 C 1059.955 298.886 1066 304.931 1066 312.386 C 1066 319.841 1059.955 325.886 1052.5 325.886 Z " fill="rgb(141,108,159)"/><path d=" M 1052.5 321.886 C 1052.225 321.886 1052 322.111 1052 322.386 L 1052 323.386 C 1052 323.661 1052.225 323.886 1052.5 323.886 C 1052.775 323.886 1053 323.661 1053 323.386 L 1053 322.386 C 1053 322.111 1052.775 321.886 1052.5 321.886 Z  M 1055.5 321.925 C 1055.425 321.662 1055.152 321.507 1054.888 321.579 C 1054.624 321.651 1054.466 321.922 1054.535 322.187 L 1054.795 323.152 C 1054.879 323.408 1055.148 323.552 1055.407 323.481 C 1055.666 323.41 1055.823 323.148 1055.765 322.886 L 1055.5 321.925 Z  M 1047.875 320.646 C 1047.76 320.58 1047.623 320.562 1047.494 320.595 C 1047.365 320.63 1047.256 320.716 1047.189 320.832 L 1046.689 321.697 C 1046.569 321.934 1046.655 322.224 1046.885 322.357 C 1047.115 322.49 1047.409 322.42 1047.554 322.197 L 1048.054 321.332 C 1048.122 321.217 1048.141 321.08 1048.107 320.952 C 1048.073 320.823 1047.99 320.713 1047.875 320.646 Z  M 1057.81 320.831 C 1057.667 320.605 1057.37 320.533 1057.139 320.667 C 1056.906 320.801 1056.82 321.094 1056.945 321.332 L 1057.445 322.197 C 1057.589 322.423 1057.886 322.496 1058.118 322.361 C 1058.35 322.227 1058.435 321.934 1058.31 321.697 L 1057.81 320.831 Z  M 1050.105 321.572 C 1049.839 321.501 1049.566 321.659 1049.494 321.925 L 1049.234 322.886 C 1049.18 323.061 1049.226 323.252 1049.354 323.383 C 1049.482 323.514 1049.671 323.565 1049.847 323.515 C 1050.023 323.466 1050.158 323.324 1050.199 323.146 L 1050.461 322.181 C 1050.53 321.915 1050.371 321.643 1050.106 321.572 L 1050.105 321.572 Z  M 1056.176 302.546 C 1056.533 302.681 1056.883 302.834 1057.225 303.005 C 1057.472 303.13 1057.774 303.031 1057.899 302.785 C 1058.022 302.537 1057.922 302.236 1057.676 302.111 C 1057.302 301.924 1056.918 301.757 1056.525 301.611 C 1056.356 301.536 1056.159 301.562 1056.014 301.677 C 1055.867 301.791 1055.797 301.978 1055.832 302.16 C 1055.865 302.343 1055.998 302.492 1056.176 302.546 Z " fill="rgb(141,108,159)"/><path d=" M 1060.631 304.255 C 1060.301 303.925 1059.951 303.615 1059.586 303.325 C 1059.446 303.2 1059.248 303.162 1059.073 303.228 C 1058.897 303.293 1058.772 303.452 1058.752 303.638 C 1058.73 303.824 1058.815 304.007 1058.971 304.111 C 1059.305 304.376 1059.624 304.66 1059.926 304.961 C 1063.846 308.892 1064.029 315.195 1060.346 319.347 C 1059.886 318.362 1059.107 317.56 1058.135 317.072 C 1059.465 316.072 1060.44 314.791 1059.725 311.957 L 1058.346 305.857 C 1058.761 305.385 1058.79 304.688 1058.415 304.183 C 1058.04 303.679 1057.363 303.506 1056.792 303.769 C 1056.221 304.032 1055.912 304.658 1056.051 305.271 L 1053.685 307.951 L 1053.365 307.951 C 1053.085 307.886 1052.8 307.886 1052.5 307.886 C 1052.27 307.886 1052.035 307.886 1051.805 307.911 L 1051.336 307.911 L 1048.949 305.271 C 1048.619 304.897 1048.106 304.738 1047.622 304.862 C 1047.138 304.985 1046.764 305.37 1046.654 305.857 L 1045.276 311.941 C 1044.571 314.752 1045.506 316.041 1046.811 317.027 C 1045.833 317.492 1045.042 318.274 1044.565 319.246 C 1041.684 315.909 1041.196 311.126 1043.343 307.275 C 1045.488 303.424 1049.811 301.324 1054.164 302.018 C 1054.437 302.055 1054.689 301.868 1054.733 301.596 C 1054.776 301.324 1054.595 301.068 1054.324 301.018 C 1049.394 300.215 1044.51 302.688 1042.239 307.136 C 1039.966 311.585 1040.825 316.992 1044.365 320.517 C 1044.418 320.556 1044.477 320.591 1044.535 320.621 C 1044.586 320.628 1044.639 320.628 1044.689 320.621 C 1044.75 320.621 1044.809 320.609 1044.865 320.586 L 1044.91 320.586 C 1044.95 320.568 1044.987 320.545 1045.02 320.517 L 1045.045 320.517 C 1045.072 320.485 1045.095 320.449 1045.115 320.412 C 1045.125 320.396 1045.133 320.378 1045.141 320.361 C 1045.498 319.122 1046.463 318.152 1047.699 317.787 C 1047.724 317.777 1047.747 317.766 1047.769 317.752 C 1049.22 318.537 1050.851 318.929 1052.5 318.886 C 1054.109 318.906 1055.696 318.513 1057.11 317.746 C 1058.342 318.115 1059.303 319.085 1059.66 320.322 C 1059.73 320.537 1059.934 320.677 1060.16 320.666 L 1060.301 320.666 C 1060.434 320.667 1060.561 320.615 1060.654 320.521 C 1065.14 316.023 1065.129 308.74 1060.631 304.256 L 1060.631 304.255 Z  M 1048 316.63 C 1046.57 315.675 1045.609 314.8 1046.27 312.175 L 1047.65 306.082 C 1047.676 305.96 1047.769 305.864 1047.891 305.835 L 1047.974 305.835 C 1048.068 305.835 1048.158 305.875 1048.22 305.947 L 1050.186 308.172 C 1049.905 308.236 1049.63 308.316 1049.366 308.406 C 1049.002 308.528 1048.648 308.676 1048.304 308.847 C 1048.066 308.974 1047.973 309.268 1048.094 309.509 C 1048.213 309.751 1048.503 309.853 1048.75 309.742 C 1049.055 309.589 1049.369 309.46 1049.689 309.351 C 1050.277 309.151 1050.884 309.016 1051.5 308.946 L 1051.805 308.915 L 1052.525 308.915 C 1052.775 308.915 1053.025 308.915 1053.275 308.95 L 1053.506 308.95 C 1054.295 309.032 1055.069 309.224 1055.805 309.52 C 1056.127 309.653 1056.44 309.812 1056.74 309.991 C 1056.974 310.097 1057.25 310.009 1057.379 309.786 C 1057.507 309.564 1057.447 309.281 1057.24 309.13 C 1056.899 308.926 1056.543 308.748 1056.176 308.597 C 1055.734 308.419 1055.279 308.276 1054.815 308.171 L 1056.801 305.937 C 1056.882 305.844 1057.009 305.804 1057.129 305.833 C 1057.249 305.864 1057.342 305.96 1057.369 306.081 L 1058.756 312.186 C 1059.414 314.8 1058.449 315.686 1057.025 316.63 C 1055.671 317.48 1054.099 317.917 1052.5 317.886 C 1050.91 317.911 1049.347 317.476 1048 316.63 Z " fill="rgb(141,108,159)"/><path d=" M 1054.145 314.531 L 1053.85 314.826 C 1053.757 314.92 1053.63 314.972 1053.497 314.972 C 1053.365 314.972 1053.238 314.92 1053.145 314.826 L 1053 314.681 L 1053 313.746 C 1053.391 313.519 1053.581 313.058 1053.464 312.622 C 1053.347 312.185 1052.952 311.882 1052.5 311.881 C 1052.047 311.881 1051.65 312.185 1051.533 312.621 C 1051.416 313.058 1051.608 313.52 1052 313.746 L 1052 314.676 L 1051.855 314.822 C 1051.66 315.015 1051.345 315.015 1051.15 314.822 L 1050.855 314.527 C 1050.656 314.358 1050.361 314.369 1050.176 314.552 C 1049.992 314.738 1049.981 315.034 1050.151 315.232 L 1050.446 315.527 C 1051.009 316.088 1051.913 316.112 1052.505 315.582 C 1053.098 316.113 1054.001 316.088 1054.565 315.527 L 1054.86 315.232 C 1055.029 315.033 1055.017 314.738 1054.834 314.552 C 1054.648 314.368 1054.353 314.357 1054.154 314.527 L 1054.145 314.531 Z " fill="rgb(141,108,159)"/></g><g id="Group" style="mix-blend-mode:multiply;"><path d=" M 1066.5 392.386 C 1066.5 400.119 1060.233 406.386 1052.5 406.386 C 1044.767 406.386 1038.5 400.119 1038.5 392.386 C 1038.5 384.654 1044.767 378.386 1052.5 378.386 C 1060.233 378.386 1066.5 384.654 1066.5 392.386 Z " fill="rgb(114,202,175)"/><path d=" M 1043.355 403.031 C 1044.68 404.293 1046.239 405.281 1047.945 405.941 L 1065 388.886 L 1065 385.671 C 1064.472 384.796 1063.85 383.981 1063.145 383.241 L 1043.355 403.031 Z  M 1042.381 402.005 L 1062 382.386 L 1059 382.386 L 1041.109 400.277 C 1041.489 400.884 1041.914 401.462 1042.381 402.005 Z " fill="rgb(125,216,186)"/><path d=" M 1060.164 400.277 C 1055.844 404.476 1048.949 404.418 1044.699 400.146 C 1045.234 399.041 1046.25 397.421 1047.635 397.335 C 1047.635 397.335 1050.414 398.722 1052.53 398.392 C 1054.163 398.096 1055.776 397.698 1057.36 397.201 C 1058.642 397.845 1059.641 398.94 1060.164 400.277 L 1060.164 400.277 Z " fill="rgb(194,205,231)"/><path d=" M 1040.895 398.491 L 1057.5 381.886 L 1056 380.886 L 1040.18 396.706 C 1040.377 397.317 1040.616 397.913 1040.895 398.491 L 1040.895 398.491 Z " fill="rgb(125,216,186)"/><path d=" M 1045.93 391.681 L 1047.6 385.13 L 1051.506 388.947 L 1045.93 391.681 Z  M 1053.51 388.947 L 1057.15 385.252 L 1058.135 386.922 L 1058.94 391.252 L 1053.51 388.947 Z " fill="rgb(206,216,237)"/><path d=" M 1059.5 393.386 C 1059.5 390.625 1056.365 388.386 1052.5 388.386 C 1048.635 388.386 1045.5 390.625 1045.5 393.386 C 1045.5 396.148 1048.635 398.386 1052.5 398.386 C 1056.365 398.386 1059.5 396.148 1059.5 393.386 Z " fill="rgb(181,196,224)"/><path d=" M 1052.5 378.386 C 1044.767 378.386 1038.5 384.654 1038.5 392.386 C 1038.5 400.119 1044.767 406.386 1052.5 406.386 C 1060.233 406.386 1066.5 400.119 1066.5 392.386 C 1066.5 384.654 1060.233 378.386 1052.5 378.386 Z  M 1052.5 403.386 C 1047.554 403.386 1043.216 400.086 1041.897 395.32 C 1040.578 390.553 1042.602 385.493 1046.844 382.951 C 1051.087 380.408 1056.505 381.01 1060.086 384.421 L 1060.426 384.755 C 1063.556 388.007 1064.383 392.84 1062.512 396.947 C 1060.724 400.869 1056.811 403.386 1052.5 403.386 Z " fill="rgb(249,227,174)"/><path d=" M 1066.305 394.741 C 1065.167 401.48 1059.333 406.414 1052.5 406.414 C 1045.667 406.414 1039.832 401.48 1038.695 394.741 C 1038.588 394.153 1038.751 393.547 1039.138 393.091 C 1039.526 392.635 1040.097 392.377 1040.695 392.386 L 1041.5 392.386 C 1041.5 398.46 1046.426 403.386 1052.5 403.386 C 1058.574 403.386 1063.5 398.46 1063.5 392.386 L 1064.33 392.386 C 1064.924 392.384 1065.488 392.645 1065.87 393.101 C 1066.251 393.556 1066.411 394.157 1066.305 394.741 Z " fill="rgb(246,211,151)"/><path d=" M 1052.5 377.886 C 1044.492 377.886 1038 384.378 1038 392.386 C 1038 400.394 1044.492 406.886 1052.5 406.886 C 1060.508 406.886 1067 400.394 1067 392.386 C 1067 384.378 1060.508 377.886 1052.5 377.886 Z  M 1052.5 405.886 C 1045.045 405.886 1039 399.841 1039 392.386 C 1039 384.931 1045.045 378.886 1052.5 378.886 C 1059.955 378.886 1066 384.931 1066 392.386 C 1066 399.841 1059.955 405.886 1052.5 405.886 Z " fill="rgb(141,108,159)"/><path d=" M 1052.5 401.886 C 1052.225 401.886 1052 402.111 1052 402.386 L 1052 403.386 C 1052 403.661 1052.225 403.886 1052.5 403.886 C 1052.775 403.886 1053 403.661 1053 403.386 L 1053 402.386 C 1053 402.111 1052.775 401.886 1052.5 401.886 Z  M 1055.5 401.925 C 1055.425 401.662 1055.152 401.507 1054.888 401.579 C 1054.624 401.651 1054.466 401.922 1054.535 402.187 L 1054.795 403.152 C 1054.879 403.408 1055.148 403.552 1055.407 403.481 C 1055.666 403.41 1055.823 403.148 1055.765 402.886 L 1055.5 401.925 Z  M 1047.875 400.646 C 1047.76 400.58 1047.623 400.562 1047.494 400.595 C 1047.365 400.63 1047.256 400.716 1047.189 400.832 L 1046.689 401.697 C 1046.569 401.934 1046.655 402.224 1046.885 402.357 C 1047.115 402.49 1047.409 402.42 1047.554 402.197 L 1048.054 401.332 C 1048.122 401.217 1048.141 401.08 1048.107 400.952 C 1048.073 400.823 1047.99 400.713 1047.875 400.646 Z  M 1057.81 400.831 C 1057.667 400.605 1057.37 400.533 1057.139 400.667 C 1056.906 400.801 1056.82 401.094 1056.945 401.332 L 1057.445 402.197 C 1057.589 402.423 1057.886 402.496 1058.118 402.361 C 1058.35 402.227 1058.435 401.934 1058.31 401.697 L 1057.81 400.831 Z  M 1050.105 401.572 C 1049.839 401.501 1049.566 401.659 1049.494 401.925 L 1049.234 402.886 C 1049.18 403.061 1049.226 403.252 1049.354 403.383 C 1049.482 403.514 1049.671 403.565 1049.847 403.515 C 1050.023 403.466 1050.158 403.324 1050.199 403.146 L 1050.461 402.181 C 1050.53 401.915 1050.371 401.643 1050.106 401.572 L 1050.105 401.572 Z  M 1056.176 382.546 C 1056.533 382.681 1056.883 382.834 1057.225 383.005 C 1057.472 383.13 1057.774 383.031 1057.899 382.785 C 1058.022 382.537 1057.922 382.236 1057.676 382.111 C 1057.302 381.924 1056.918 381.757 1056.525 381.611 C 1056.356 381.536 1056.159 381.562 1056.014 381.677 C 1055.867 381.791 1055.797 381.978 1055.832 382.16 C 1055.865 382.343 1055.998 382.492 1056.176 382.546 Z " fill="rgb(141,108,159)"/><path d=" M 1060.631 384.255 C 1060.301 383.925 1059.951 383.615 1059.586 383.325 C 1059.446 383.2 1059.248 383.162 1059.073 383.228 C 1058.897 383.293 1058.772 383.452 1058.752 383.638 C 1058.73 383.824 1058.815 384.007 1058.971 384.111 C 1059.305 384.376 1059.624 384.66 1059.926 384.961 C 1063.846 388.892 1064.029 395.195 1060.346 399.347 C 1059.886 398.362 1059.107 397.56 1058.135 397.072 C 1059.465 396.072 1060.44 394.791 1059.725 391.957 L 1058.346 385.857 C 1058.761 385.385 1058.79 384.688 1058.415 384.183 C 1058.04 383.679 1057.363 383.506 1056.792 383.769 C 1056.221 384.032 1055.912 384.658 1056.051 385.271 L 1053.685 387.951 L 1053.365 387.951 C 1053.085 387.886 1052.8 387.886 1052.5 387.886 C 1052.27 387.886 1052.035 387.886 1051.805 387.911 L 1051.336 387.911 L 1048.949 385.271 C 1048.619 384.897 1048.106 384.738 1047.622 384.862 C 1047.138 384.985 1046.764 385.37 1046.654 385.857 L 1045.276 391.941 C 1044.571 394.752 1045.506 396.041 1046.811 397.027 C 1045.833 397.492 1045.042 398.274 1044.565 399.246 C 1041.684 395.909 1041.196 391.126 1043.343 387.275 C 1045.488 383.424 1049.811 381.324 1054.164 382.018 C 1054.437 382.055 1054.689 381.868 1054.733 381.596 C 1054.776 381.324 1054.595 381.068 1054.324 381.018 C 1049.394 380.215 1044.51 382.688 1042.239 387.136 C 1039.966 391.585 1040.825 396.992 1044.365 400.517 C 1044.418 400.556 1044.477 400.591 1044.535 400.621 C 1044.586 400.628 1044.639 400.628 1044.689 400.621 C 1044.75 400.621 1044.809 400.609 1044.865 400.586 L 1044.91 400.586 C 1044.95 400.568 1044.987 400.545 1045.02 400.517 L 1045.045 400.517 C 1045.072 400.485 1045.095 400.449 1045.115 400.412 C 1045.125 400.396 1045.133 400.378 1045.141 400.361 C 1045.498 399.122 1046.463 398.152 1047.699 397.787 C 1047.724 397.777 1047.747 397.766 1047.769 397.752 C 1049.22 398.537 1050.851 398.929 1052.5 398.886 C 1054.109 398.906 1055.696 398.513 1057.11 397.746 C 1058.342 398.115 1059.303 399.085 1059.66 400.322 C 1059.73 400.537 1059.934 400.677 1060.16 400.666 L 1060.301 400.666 C 1060.434 400.667 1060.561 400.615 1060.654 400.521 C 1065.14 396.023 1065.129 388.74 1060.631 384.256 L 1060.631 384.255 Z  M 1048 396.63 C 1046.57 395.675 1045.609 394.8 1046.27 392.175 L 1047.65 386.082 C 1047.676 385.96 1047.769 385.864 1047.891 385.835 L 1047.974 385.835 C 1048.068 385.835 1048.158 385.875 1048.22 385.947 L 1050.186 388.172 C 1049.905 388.236 1049.63 388.316 1049.366 388.406 C 1049.002 388.528 1048.648 388.676 1048.304 388.847 C 1048.066 388.974 1047.973 389.268 1048.094 389.509 C 1048.213 389.751 1048.503 389.853 1048.75 389.742 C 1049.055 389.589 1049.369 389.46 1049.689 389.351 C 1050.277 389.151 1050.884 389.016 1051.5 388.946 L 1051.805 388.915 L 1052.525 388.915 C 1052.775 388.915 1053.025 388.915 1053.275 388.95 L 1053.506 388.95 C 1054.295 389.032 1055.069 389.224 1055.805 389.52 C 1056.127 389.653 1056.44 389.812 1056.74 389.991 C 1056.974 390.097 1057.25 390.009 1057.379 389.786 C 1057.507 389.564 1057.447 389.281 1057.24 389.13 C 1056.899 388.926 1056.543 388.748 1056.176 388.597 C 1055.734 388.419 1055.279 388.276 1054.815 388.171 L 1056.801 385.937 C 1056.882 385.844 1057.009 385.804 1057.129 385.833 C 1057.249 385.864 1057.342 385.96 1057.369 386.081 L 1058.756 392.186 C 1059.414 394.8 1058.449 395.686 1057.025 396.63 C 1055.671 397.48 1054.099 397.917 1052.5 397.886 C 1050.91 397.911 1049.347 397.476 1048 396.63 Z " fill="rgb(141,108,159)"/><path d=" M 1054.145 394.531 L 1053.85 394.826 C 1053.757 394.92 1053.63 394.972 1053.497 394.972 C 1053.365 394.972 1053.238 394.92 1053.145 394.826 L 1053 394.681 L 1053 393.746 C 1053.391 393.519 1053.581 393.058 1053.464 392.622 C 1053.347 392.185 1052.952 391.882 1052.5 391.881 C 1052.047 391.881 1051.65 392.185 1051.533 392.621 C 1051.416 393.058 1051.608 393.52 1052 393.746 L 1052 394.676 L 1051.855 394.822 C 1051.66 395.015 1051.345 395.015 1051.15 394.822 L 1050.855 394.527 C 1050.656 394.358 1050.361 394.369 1050.176 394.552 C 1049.992 394.738 1049.981 395.034 1050.151 395.232 L 1050.446 395.527 C 1051.009 396.088 1051.913 396.112 1052.505 395.582 C 1053.098 396.113 1054.001 396.088 1054.565 395.527 L 1054.86 395.232 C 1055.029 395.033 1055.017 394.738 1054.834 394.552 C 1054.648 394.368 1054.353 394.357 1054.154 394.527 L 1054.145 394.531 Z " fill="rgb(141,108,159)"/></g><g id="Group" style="mix-blend-mode:multiply;"><path d=" M 1066.5 472.386 C 1066.5 480.119 1060.233 486.386 1052.5 486.386 C 1044.767 486.386 1038.5 480.119 1038.5 472.386 C 1038.5 464.654 1044.767 458.386 1052.5 458.386 C 1060.233 458.386 1066.5 464.654 1066.5 472.386 Z " fill="rgb(114,202,175)"/><path d=" M 1043.355 483.031 C 1044.68 484.293 1046.239 485.281 1047.945 485.941 L 1065 468.886 L 1065 465.671 C 1064.472 464.796 1063.85 463.981 1063.145 463.241 L 1043.355 483.031 Z  M 1042.381 482.005 L 1062 462.386 L 1059 462.386 L 1041.109 480.277 C 1041.489 480.884 1041.914 481.462 1042.381 482.005 Z " fill="rgb(125,216,186)"/><path d=" M 1060.164 480.277 C 1055.844 484.476 1048.949 484.418 1044.699 480.146 C 1045.234 479.041 1046.25 477.421 1047.635 477.335 C 1047.635 477.335 1050.414 478.722 1052.53 478.392 C 1054.163 478.096 1055.776 477.698 1057.36 477.201 C 1058.642 477.845 1059.641 478.94 1060.164 480.277 L 1060.164 480.277 Z " fill="rgb(194,205,231)"/><path d=" M 1040.895 478.491 L 1057.5 461.886 L 1056 460.886 L 1040.18 476.706 C 1040.377 477.317 1040.616 477.913 1040.895 478.491 L 1040.895 478.491 Z " fill="rgb(125,216,186)"/><path d=" M 1045.93 471.681 L 1047.6 465.13 L 1051.506 468.947 L 1045.93 471.681 Z  M 1053.51 468.947 L 1057.15 465.252 L 1058.135 466.922 L 1058.94 471.252 L 1053.51 468.947 Z " fill="rgb(206,216,237)"/><path d=" M 1059.5 473.386 C 1059.5 470.625 1056.365 468.386 1052.5 468.386 C 1048.635 468.386 1045.5 470.625 1045.5 473.386 C 1045.5 476.148 1048.635 478.386 1052.5 478.386 C 1056.365 478.386 1059.5 476.148 1059.5 473.386 Z " fill="rgb(181,196,224)"/><path d=" M 1052.5 458.386 C 1044.767 458.386 1038.5 464.654 1038.5 472.386 C 1038.5 480.119 1044.767 486.386 1052.5 486.386 C 1060.233 486.386 1066.5 480.119 1066.5 472.386 C 1066.5 464.654 1060.233 458.386 1052.5 458.386 Z  M 1052.5 483.386 C 1047.554 483.386 1043.216 480.086 1041.897 475.32 C 1040.578 470.553 1042.602 465.493 1046.844 462.951 C 1051.087 460.408 1056.505 461.01 1060.086 464.421 L 1060.426 464.755 C 1063.556 468.007 1064.383 472.84 1062.512 476.947 C 1060.724 480.869 1056.811 483.386 1052.5 483.386 Z " fill="rgb(249,227,174)"/><path d=" M 1066.305 474.741 C 1065.167 481.48 1059.333 486.414 1052.5 486.414 C 1045.667 486.414 1039.832 481.48 1038.695 474.741 C 1038.588 474.153 1038.751 473.547 1039.138 473.091 C 1039.526 472.635 1040.097 472.377 1040.695 472.386 L 1041.5 472.386 C 1041.5 478.46 1046.426 483.386 1052.5 483.386 C 1058.574 483.386 1063.5 478.46 1063.5 472.386 L 1064.33 472.386 C 1064.924 472.384 1065.488 472.645 1065.87 473.101 C 1066.251 473.556 1066.411 474.157 1066.305 474.741 Z " fill="rgb(246,211,151)"/><path d=" M 1052.5 457.886 C 1044.492 457.886 1038 464.378 1038 472.386 C 1038 480.394 1044.492 486.886 1052.5 486.886 C 1060.508 486.886 1067 480.394 1067 472.386 C 1067 464.378 1060.508 457.886 1052.5 457.886 Z  M 1052.5 485.886 C 1045.045 485.886 1039 479.841 1039 472.386 C 1039 464.931 1045.045 458.886 1052.5 458.886 C 1059.955 458.886 1066 464.931 1066 472.386 C 1066 479.841 1059.955 485.886 1052.5 485.886 Z " fill="rgb(141,108,159)"/><path d=" M 1052.5 481.886 C 1052.225 481.886 1052 482.111 1052 482.386 L 1052 483.386 C 1052 483.661 1052.225 483.886 1052.5 483.886 C 1052.775 483.886 1053 483.661 1053 483.386 L 1053 482.386 C 1053 482.111 1052.775 481.886 1052.5 481.886 Z  M 1055.5 481.925 C 1055.425 481.662 1055.152 481.507 1054.888 481.579 C 1054.624 481.651 1054.466 481.922 1054.535 482.187 L 1054.795 483.152 C 1054.879 483.408 1055.148 483.552 1055.407 483.481 C 1055.666 483.41 1055.823 483.148 1055.765 482.886 L 1055.5 481.925 Z  M 1047.875 480.646 C 1047.76 480.58 1047.623 480.562 1047.494 480.595 C 1047.365 480.63 1047.256 480.716 1047.189 480.832 L 1046.689 481.697 C 1046.569 481.934 1046.655 482.224 1046.885 482.357 C 1047.115 482.49 1047.409 482.42 1047.554 482.197 L 1048.054 481.332 C 1048.122 481.217 1048.141 481.08 1048.107 480.952 C 1048.073 480.823 1047.99 480.713 1047.875 480.646 Z  M 1057.81 480.831 C 1057.667 480.605 1057.37 480.533 1057.139 480.667 C 1056.906 480.801 1056.82 481.094 1056.945 481.332 L 1057.445 482.197 C 1057.589 482.423 1057.886 482.496 1058.118 482.361 C 1058.35 482.227 1058.435 481.934 1058.31 481.697 L 1057.81 480.831 Z  M 1050.105 481.572 C 1049.839 481.501 1049.566 481.659 1049.494 481.925 L 1049.234 482.886 C 1049.18 483.061 1049.226 483.252 1049.354 483.383 C 1049.482 483.514 1049.671 483.565 1049.847 483.515 C 1050.023 483.466 1050.158 483.324 1050.199 483.146 L 1050.461 482.181 C 1050.53 481.915 1050.371 481.643 1050.106 481.572 L 1050.105 481.572 Z  M 1056.176 462.546 C 1056.533 462.681 1056.883 462.834 1057.225 463.005 C 1057.472 463.13 1057.774 463.031 1057.899 462.785 C 1058.022 462.537 1057.922 462.236 1057.676 462.111 C 1057.302 461.924 1056.918 461.757 1056.525 461.611 C 1056.356 461.536 1056.159 461.562 1056.014 461.677 C 1055.867 461.791 1055.797 461.978 1055.832 462.16 C 1055.865 462.343 1055.998 462.492 1056.176 462.546 Z " fill="rgb(141,108,159)"/><path d=" M 1060.631 464.255 C 1060.301 463.925 1059.951 463.615 1059.586 463.325 C 1059.446 463.2 1059.248 463.162 1059.073 463.228 C 1058.897 463.293 1058.772 463.452 1058.752 463.638 C 1058.73 463.824 1058.815 464.007 1058.971 464.111 C 1059.305 464.376 1059.624 464.66 1059.926 464.961 C 1063.846 468.892 1064.029 475.195 1060.346 479.347 C 1059.886 478.362 1059.107 477.56 1058.135 477.072 C 1059.465 476.072 1060.44 474.791 1059.725 471.957 L 1058.346 465.857 C 1058.761 465.385 1058.79 464.688 1058.415 464.183 C 1058.04 463.679 1057.363 463.506 1056.792 463.769 C 1056.221 464.032 1055.912 464.658 1056.051 465.271 L 1053.685 467.951 L 1053.365 467.951 C 1053.085 467.886 1052.8 467.886 1052.5 467.886 C 1052.27 467.886 1052.035 467.886 1051.805 467.911 L 1051.336 467.911 L 1048.949 465.271 C 1048.619 464.897 1048.106 464.738 1047.622 464.862 C 1047.138 464.985 1046.764 465.37 1046.654 465.857 L 1045.276 471.941 C 1044.571 474.752 1045.506 476.041 1046.811 477.027 C 1045.833 477.492 1045.042 478.274 1044.565 479.246 C 1041.684 475.909 1041.196 471.126 1043.343 467.275 C 1045.488 463.424 1049.811 461.324 1054.164 462.018 C 1054.437 462.055 1054.689 461.868 1054.733 461.596 C 1054.776 461.324 1054.595 461.068 1054.324 461.018 C 1049.394 460.215 1044.51 462.688 1042.239 467.136 C 1039.966 471.585 1040.825 476.992 1044.365 480.517 C 1044.418 480.556 1044.477 480.591 1044.535 480.621 C 1044.586 480.628 1044.639 480.628 1044.689 480.621 C 1044.75 480.621 1044.809 480.609 1044.865 480.586 L 1044.91 480.586 C 1044.95 480.568 1044.987 480.545 1045.02 480.517 L 1045.045 480.517 C 1045.072 480.485 1045.095 480.449 1045.115 480.412 C 1045.125 480.396 1045.133 480.378 1045.141 480.361 C 1045.498 479.122 1046.463 478.152 1047.699 477.787 C 1047.724 477.777 1047.747 477.766 1047.769 477.752 C 1049.22 478.537 1050.851 478.929 1052.5 478.886 C 1054.109 478.906 1055.696 478.513 1057.11 477.746 C 1058.342 478.115 1059.303 479.085 1059.66 480.322 C 1059.73 480.537 1059.934 480.677 1060.16 480.666 L 1060.301 480.666 C 1060.434 480.667 1060.561 480.615 1060.654 480.521 C 1065.14 476.023 1065.129 468.74 1060.631 464.256 L 1060.631 464.255 Z  M 1048 476.63 C 1046.57 475.675 1045.609 474.8 1046.27 472.175 L 1047.65 466.082 C 1047.676 465.96 1047.769 465.864 1047.891 465.835 L 1047.974 465.835 C 1048.068 465.835 1048.158 465.875 1048.22 465.947 L 1050.186 468.172 C 1049.905 468.236 1049.63 468.316 1049.366 468.406 C 1049.002 468.528 1048.648 468.676 1048.304 468.847 C 1048.066 468.974 1047.973 469.268 1048.094 469.509 C 1048.213 469.751 1048.503 469.853 1048.75 469.742 C 1049.055 469.589 1049.369 469.46 1049.689 469.351 C 1050.277 469.151 1050.884 469.016 1051.5 468.946 L 1051.805 468.915 L 1052.525 468.915 C 1052.775 468.915 1053.025 468.915 1053.275 468.95 L 1053.506 468.95 C 1054.295 469.032 1055.069 469.224 1055.805 469.52 C 1056.127 469.653 1056.44 469.812 1056.74 469.991 C 1056.974 470.097 1057.25 470.009 1057.379 469.786 C 1057.507 469.564 1057.447 469.281 1057.24 469.13 C 1056.899 468.926 1056.543 468.748 1056.176 468.597 C 1055.734 468.419 1055.279 468.276 1054.815 468.171 L 1056.801 465.937 C 1056.882 465.844 1057.009 465.804 1057.129 465.833 C 1057.249 465.864 1057.342 465.96 1057.369 466.081 L 1058.756 472.186 C 1059.414 474.8 1058.449 475.686 1057.025 476.63 C 1055.671 477.48 1054.099 477.917 1052.5 477.886 C 1050.91 477.911 1049.347 477.476 1048 476.63 Z " fill="rgb(141,108,159)"/><path d=" M 1054.145 474.531 L 1053.85 474.826 C 1053.757 474.92 1053.63 474.972 1053.497 474.972 C 1053.365 474.972 1053.238 474.92 1053.145 474.826 L 1053 474.681 L 1053 473.746 C 1053.391 473.519 1053.581 473.058 1053.464 472.622 C 1053.347 472.185 1052.952 471.882 1052.5 471.881 C 1052.047 471.881 1051.65 472.185 1051.533 472.621 C 1051.416 473.058 1051.608 473.52 1052 473.746 L 1052 474.676 L 1051.855 474.822 C 1051.66 475.015 1051.345 475.015 1051.15 474.822 L 1050.855 474.527 C 1050.656 474.358 1050.361 474.369 1050.176 474.552 C 1049.992 474.738 1049.981 475.034 1050.151 475.232 L 1050.446 475.527 C 1051.009 476.088 1051.913 476.112 1052.505 475.582 C 1053.098 476.113 1054.001 476.088 1054.565 475.527 L 1054.86 475.232 C 1055.029 475.033 1055.017 474.738 1054.834 474.552 C 1054.648 474.368 1054.353 474.357 1054.154 474.527 L 1054.145 474.531 Z " fill="rgb(141,108,159)"/></g><g id="Group" style="mix-blend-mode:multiply;"><path d=" M 1066.5 552.386 C 1066.5 560.119 1060.233 566.386 1052.5 566.386 C 1044.767 566.386 1038.5 560.119 1038.5 552.386 C 1038.5 544.654 1044.767 538.386 1052.5 538.386 C 1060.233 538.386 1066.5 544.654 1066.5 552.386 Z " fill="rgb(114,202,175)"/><path d=" M 1043.355 563.031 C 1044.68 564.293 1046.239 565.281 1047.945 565.941 L 1065 548.886 L 1065 545.671 C 1064.472 544.796 1063.85 543.981 1063.145 543.241 L 1043.355 563.031 Z  M 1042.381 562.005 L 1062 542.386 L 1059 542.386 L 1041.109 560.277 C 1041.489 560.884 1041.914 561.462 1042.381 562.005 Z " fill="rgb(125,216,186)"/><path d=" M 1060.164 560.277 C 1055.844 564.476 1048.949 564.418 1044.699 560.146 C 1045.234 559.041 1046.25 557.421 1047.635 557.335 C 1047.635 557.335 1050.414 558.722 1052.53 558.392 C 1054.163 558.096 1055.776 557.698 1057.36 557.201 C 1058.642 557.845 1059.641 558.94 1060.164 560.277 L 1060.164 560.277 Z " fill="rgb(194,205,231)"/><path d=" M 1040.895 558.491 L 1057.5 541.886 L 1056 540.886 L 1040.18 556.706 C 1040.377 557.317 1040.616 557.913 1040.895 558.491 L 1040.895 558.491 Z " fill="rgb(125,216,186)"/><path d=" M 1045.93 551.681 L 1047.6 545.13 L 1051.506 548.947 L 1045.93 551.681 Z  M 1053.51 548.947 L 1057.15 545.252 L 1058.135 546.922 L 1058.94 551.252 L 1053.51 548.947 Z " fill="rgb(206,216,237)"/><path d=" M 1059.5 553.386 C 1059.5 550.625 1056.365 548.386 1052.5 548.386 C 1048.635 548.386 1045.5 550.625 1045.5 553.386 C 1045.5 556.148 1048.635 558.386 1052.5 558.386 C 1056.365 558.386 1059.5 556.148 1059.5 553.386 Z " fill="rgb(181,196,224)"/><path d=" M 1052.5 538.386 C 1044.767 538.386 1038.5 544.654 1038.5 552.386 C 1038.5 560.119 1044.767 566.386 1052.5 566.386 C 1060.233 566.386 1066.5 560.119 1066.5 552.386 C 1066.5 544.654 1060.233 538.386 1052.5 538.386 Z  M 1052.5 563.386 C 1047.554 563.386 1043.216 560.086 1041.897 555.32 C 1040.578 550.553 1042.602 545.493 1046.844 542.951 C 1051.087 540.408 1056.505 541.01 1060.086 544.421 L 1060.426 544.755 C 1063.556 548.007 1064.383 552.84 1062.512 556.947 C 1060.724 560.869 1056.811 563.386 1052.5 563.386 Z " fill="rgb(249,227,174)"/><path d=" M 1066.305 554.741 C 1065.167 561.48 1059.333 566.414 1052.5 566.414 C 1045.667 566.414 1039.832 561.48 1038.695 554.741 C 1038.588 554.153 1038.751 553.547 1039.138 553.091 C 1039.526 552.635 1040.097 552.377 1040.695 552.386 L 1041.5 552.386 C 1041.5 558.46 1046.426 563.386 1052.5 563.386 C 1058.574 563.386 1063.5 558.46 1063.5 552.386 L 1064.33 552.386 C 1064.924 552.384 1065.488 552.645 1065.87 553.101 C 1066.251 553.556 1066.411 554.157 1066.305 554.741 Z " fill="rgb(246,211,151)"/><path d=" M 1052.5 537.886 C 1044.492 537.886 1038 544.378 1038 552.386 C 1038 560.394 1044.492 566.886 1052.5 566.886 C 1060.508 566.886 1067 560.394 1067 552.386 C 1067 544.378 1060.508 537.886 1052.5 537.886 Z  M 1052.5 565.886 C 1045.045 565.886 1039 559.841 1039 552.386 C 1039 544.931 1045.045 538.886 1052.5 538.886 C 1059.955 538.886 1066 544.931 1066 552.386 C 1066 559.841 1059.955 565.886 1052.5 565.886 Z " fill="rgb(141,108,159)"/><path d=" M 1052.5 561.886 C 1052.225 561.886 1052 562.111 1052 562.386 L 1052 563.386 C 1052 563.661 1052.225 563.886 1052.5 563.886 C 1052.775 563.886 1053 563.661 1053 563.386 L 1053 562.386 C 1053 562.111 1052.775 561.886 1052.5 561.886 Z  M 1055.5 561.925 C 1055.425 561.662 1055.152 561.507 1054.888 561.579 C 1054.624 561.651 1054.466 561.922 1054.535 562.187 L 1054.795 563.152 C 1054.879 563.408 1055.148 563.552 1055.407 563.481 C 1055.666 563.41 1055.823 563.148 1055.765 562.886 L 1055.5 561.925 Z  M 1047.875 560.646 C 1047.76 560.58 1047.623 560.562 1047.494 560.595 C 1047.365 560.63 1047.256 560.716 1047.189 560.832 L 1046.689 561.697 C 1046.569 561.934 1046.655 562.224 1046.885 562.357 C 1047.115 562.49 1047.409 562.42 1047.554 562.197 L 1048.054 561.332 C 1048.122 561.217 1048.141 561.08 1048.107 560.952 C 1048.073 560.823 1047.99 560.713 1047.875 560.646 Z  M 1057.81 560.831 C 1057.667 560.605 1057.37 560.533 1057.139 560.667 C 1056.906 560.801 1056.82 561.094 1056.945 561.332 L 1057.445 562.197 C 1057.589 562.423 1057.886 562.496 1058.118 562.361 C 1058.35 562.227 1058.435 561.934 1058.31 561.697 L 1057.81 560.831 Z  M 1050.105 561.572 C 1049.839 561.501 1049.566 561.659 1049.494 561.925 L 1049.234 562.886 C 1049.18 563.061 1049.226 563.252 1049.354 563.383 C 1049.482 563.514 1049.671 563.565 1049.847 563.515 C 1050.023 563.466 1050.158 563.324 1050.199 563.146 L 1050.461 562.181 C 1050.53 561.915 1050.371 561.643 1050.106 561.572 L 1050.105 561.572 Z  M 1056.176 542.546 C 1056.533 542.681 1056.883 542.834 1057.225 543.005 C 1057.472 543.13 1057.774 543.031 1057.899 542.785 C 1058.022 542.537 1057.922 542.236 1057.676 542.111 C 1057.302 541.924 1056.918 541.757 1056.525 541.611 C 1056.356 541.536 1056.159 541.562 1056.014 541.677 C 1055.867 541.791 1055.797 541.978 1055.832 542.16 C 1055.865 542.343 1055.998 542.492 1056.176 542.546 Z " fill="rgb(141,108,159)"/><path d=" M 1060.631 544.255 C 1060.301 543.925 1059.951 543.615 1059.586 543.325 C 1059.446 543.2 1059.248 543.162 1059.073 543.228 C 1058.897 543.293 1058.772 543.452 1058.752 543.638 C 1058.73 543.824 1058.815 544.007 1058.971 544.111 C 1059.305 544.376 1059.624 544.66 1059.926 544.961 C 1063.846 548.892 1064.029 555.195 1060.346 559.347 C 1059.886 558.362 1059.107 557.56 1058.135 557.072 C 1059.465 556.072 1060.44 554.791 1059.725 551.957 L 1058.346 545.857 C 1058.761 545.385 1058.79 544.688 1058.415 544.183 C 1058.04 543.679 1057.363 543.506 1056.792 543.769 C 1056.221 544.032 1055.912 544.658 1056.051 545.271 L 1053.685 547.951 L 1053.365 547.951 C 1053.085 547.886 1052.8 547.886 1052.5 547.886 C 1052.27 547.886 1052.035 547.886 1051.805 547.911 L 1051.336 547.911 L 1048.949 545.271 C 1048.619 544.897 1048.106 544.738 1047.622 544.862 C 1047.138 544.985 1046.764 545.37 1046.654 545.857 L 1045.276 551.941 C 1044.571 554.752 1045.506 556.041 1046.811 557.027 C 1045.833 557.492 1045.042 558.274 1044.565 559.246 C 1041.684 555.909 1041.196 551.126 1043.343 547.275 C 1045.488 543.424 1049.811 541.324 1054.164 542.018 C 1054.437 542.055 1054.689 541.868 1054.733 541.596 C 1054.776 541.324 1054.595 541.068 1054.324 541.018 C 1049.394 540.215 1044.51 542.688 1042.239 547.136 C 1039.966 551.585 1040.825 556.992 1044.365 560.517 C 1044.418 560.556 1044.477 560.591 1044.535 560.621 C 1044.586 560.628 1044.639 560.628 1044.689 560.621 C 1044.75 560.621 1044.809 560.609 1044.865 560.586 L 1044.91 560.586 C 1044.95 560.568 1044.987 560.545 1045.02 560.517 L 1045.045 560.517 C 1045.072 560.485 1045.095 560.449 1045.115 560.412 C 1045.125 560.396 1045.133 560.378 1045.141 560.361 C 1045.498 559.122 1046.463 558.152 1047.699 557.787 C 1047.724 557.777 1047.747 557.766 1047.769 557.752 C 1049.22 558.537 1050.851 558.929 1052.5 558.886 C 1054.109 558.906 1055.696 558.513 1057.11 557.746 C 1058.342 558.115 1059.303 559.085 1059.66 560.322 C 1059.73 560.537 1059.934 560.677 1060.16 560.666 L 1060.301 560.666 C 1060.434 560.667 1060.561 560.615 1060.654 560.521 C 1065.14 556.023 1065.129 548.74 1060.631 544.256 L 1060.631 544.255 Z  M 1048 556.63 C 1046.57 555.675 1045.609 554.8 1046.27 552.175 L 1047.65 546.082 C 1047.676 545.96 1047.769 545.864 1047.891 545.835 L 1047.974 545.835 C 1048.068 545.835 1048.158 545.875 1048.22 545.947 L 1050.186 548.172 C 1049.905 548.236 1049.63 548.316 1049.366 548.406 C 1049.002 548.528 1048.648 548.676 1048.304 548.847 C 1048.066 548.974 1047.973 549.268 1048.094 549.509 C 1048.213 549.751 1048.503 549.853 1048.75 549.742 C 1049.055 549.589 1049.369 549.46 1049.689 549.351 C 1050.277 549.151 1050.884 549.016 1051.5 548.946 L 1051.805 548.915 L 1052.525 548.915 C 1052.775 548.915 1053.025 548.915 1053.275 548.95 L 1053.506 548.95 C 1054.295 549.032 1055.069 549.224 1055.805 549.52 C 1056.127 549.653 1056.44 549.812 1056.74 549.991 C 1056.974 550.097 1057.25 550.009 1057.379 549.786 C 1057.507 549.564 1057.447 549.281 1057.24 549.13 C 1056.899 548.926 1056.543 548.748 1056.176 548.597 C 1055.734 548.419 1055.279 548.276 1054.815 548.171 L 1056.801 545.937 C 1056.882 545.844 1057.009 545.804 1057.129 545.833 C 1057.249 545.864 1057.342 545.96 1057.369 546.081 L 1058.756 552.186 C 1059.414 554.8 1058.449 555.686 1057.025 556.63 C 1055.671 557.48 1054.099 557.917 1052.5 557.886 C 1050.91 557.911 1049.347 557.476 1048 556.63 Z " fill="rgb(141,108,159)"/><path d=" M 1054.145 554.531 L 1053.85 554.826 C 1053.757 554.92 1053.63 554.972 1053.497 554.972 C 1053.365 554.972 1053.238 554.92 1053.145 554.826 L 1053 554.681 L 1053 553.746 C 1053.391 553.519 1053.581 553.058 1053.464 552.622 C 1053.347 552.185 1052.952 551.882 1052.5 551.881 C 1052.047 551.881 1051.65 552.185 1051.533 552.621 C 1051.416 553.058 1051.608 553.52 1052 553.746 L 1052 554.676 L 1051.855 554.822 C 1051.66 555.015 1051.345 555.015 1051.15 554.822 L 1050.855 554.527 C 1050.656 554.358 1050.361 554.369 1050.176 554.552 C 1049.992 554.738 1049.981 555.034 1050.151 555.232 L 1050.446 555.527 C 1051.009 556.088 1051.913 556.112 1052.505 555.582 C 1053.098 556.113 1054.001 556.088 1054.565 555.527 L 1054.86 555.232 C 1055.029 555.033 1055.017 554.738 1054.834 554.552 C 1054.648 554.368 1054.353 554.357 1054.154 554.527 L 1054.145 554.531 Z " fill="rgb(141,108,159)"/></g><g id="Group" style="mix-blend-mode:multiply;"><path d=" M 1066.5 632.386 C 1066.5 640.119 1060.233 646.386 1052.5 646.386 C 1044.767 646.386 1038.5 640.119 1038.5 632.386 C 1038.5 624.654 1044.767 618.386 1052.5 618.386 C 1060.233 618.386 1066.5 624.654 1066.5 632.386 Z " fill="rgb(114,202,175)"/><path d=" M 1043.355 643.031 C 1044.68 644.293 1046.239 645.281 1047.945 645.941 L 1065 628.886 L 1065 625.671 C 1064.472 624.796 1063.85 623.981 1063.145 623.241 L 1043.355 643.031 Z  M 1042.381 642.005 L 1062 622.386 L 1059 622.386 L 1041.109 640.277 C 1041.489 640.884 1041.914 641.462 1042.381 642.005 Z " fill="rgb(125,216,186)"/><path d=" M 1060.164 640.277 C 1055.844 644.476 1048.949 644.418 1044.699 640.146 C 1045.234 639.041 1046.25 637.421 1047.635 637.335 C 1047.635 637.335 1050.414 638.722 1052.53 638.392 C 1054.163 638.096 1055.776 637.698 1057.36 637.201 C 1058.642 637.845 1059.641 638.94 1060.164 640.277 L 1060.164 640.277 Z " fill="rgb(194,205,231)"/><path d=" M 1040.895 638.491 L 1057.5 621.886 L 1056 620.886 L 1040.18 636.706 C 1040.377 637.317 1040.616 637.913 1040.895 638.491 L 1040.895 638.491 Z " fill="rgb(125,216,186)"/><path d=" M 1045.93 631.681 L 1047.6 625.13 L 1051.506 628.947 L 1045.93 631.681 Z  M 1053.51 628.947 L 1057.15 625.252 L 1058.135 626.922 L 1058.94 631.252 L 1053.51 628.947 Z " fill="rgb(206,216,237)"/><path d=" M 1059.5 633.386 C 1059.5 630.625 1056.365 628.386 1052.5 628.386 C 1048.635 628.386 1045.5 630.625 1045.5 633.386 C 1045.5 636.148 1048.635 638.386 1052.5 638.386 C 1056.365 638.386 1059.5 636.148 1059.5 633.386 Z " fill="rgb(181,196,224)"/><path d=" M 1052.5 618.386 C 1044.767 618.386 1038.5 624.654 1038.5 632.386 C 1038.5 640.119 1044.767 646.386 1052.5 646.386 C 1060.233 646.386 1066.5 640.119 1066.5 632.386 C 1066.5 624.654 1060.233 618.386 1052.5 618.386 Z  M 1052.5 643.386 C 1047.554 643.386 1043.216 640.086 1041.897 635.32 C 1040.578 630.553 1042.602 625.493 1046.844 622.951 C 1051.087 620.408 1056.505 621.01 1060.086 624.421 L 1060.426 624.755 C 1063.556 628.007 1064.383 632.84 1062.512 636.947 C 1060.724 640.869 1056.811 643.386 1052.5 643.386 Z " fill="rgb(249,227,174)"/><path d=" M 1066.305 634.741 C 1065.167 641.48 1059.333 646.414 1052.5 646.414 C 1045.667 646.414 1039.832 641.48 1038.695 634.741 C 1038.588 634.153 1038.751 633.547 1039.138 633.091 C 1039.526 632.635 1040.097 632.377 1040.695 632.386 L 1041.5 632.386 C 1041.5 638.46 1046.426 643.386 1052.5 643.386 C 1058.574 643.386 1063.5 638.46 1063.5 632.386 L 1064.33 632.386 C 1064.924 632.384 1065.488 632.645 1065.87 633.101 C 1066.251 633.556 1066.411 634.157 1066.305 634.741 Z " fill="rgb(246,211,151)"/><path d=" M 1052.5 617.886 C 1044.492 617.886 1038 624.378 1038 632.386 C 1038 640.394 1044.492 646.886 1052.5 646.886 C 1060.508 646.886 1067 640.394 1067 632.386 C 1067 624.378 1060.508 617.886 1052.5 617.886 Z  M 1052.5 645.886 C 1045.045 645.886 1039 639.841 1039 632.386 C 1039 624.931 1045.045 618.886 1052.5 618.886 C 1059.955 618.886 1066 624.931 1066 632.386 C 1066 639.841 1059.955 645.886 1052.5 645.886 Z " fill="rgb(141,108,159)"/><path d=" M 1052.5 641.886 C 1052.225 641.886 1052 642.111 1052 642.386 L 1052 643.386 C 1052 643.661 1052.225 643.886 1052.5 643.886 C 1052.775 643.886 1053 643.661 1053 643.386 L 1053 642.386 C 1053 642.111 1052.775 641.886 1052.5 641.886 Z  M 1055.5 641.925 C 1055.425 641.662 1055.152 641.507 1054.888 641.579 C 1054.624 641.651 1054.466 641.922 1054.535 642.187 L 1054.795 643.152 C 1054.879 643.408 1055.148 643.552 1055.407 643.481 C 1055.666 643.41 1055.823 643.148 1055.765 642.886 L 1055.5 641.925 Z  M 1047.875 640.646 C 1047.76 640.58 1047.623 640.562 1047.494 640.595 C 1047.365 640.63 1047.256 640.716 1047.189 640.832 L 1046.689 641.697 C 1046.569 641.934 1046.655 642.224 1046.885 642.357 C 1047.115 642.49 1047.409 642.42 1047.554 642.197 L 1048.054 641.332 C 1048.122 641.217 1048.141 641.08 1048.107 640.952 C 1048.073 640.823 1047.99 640.713 1047.875 640.646 Z  M 1057.81 640.831 C 1057.667 640.605 1057.37 640.533 1057.139 640.667 C 1056.906 640.801 1056.82 641.094 1056.945 641.332 L 1057.445 642.197 C 1057.589 642.423 1057.886 642.496 1058.118 642.361 C 1058.35 642.227 1058.435 641.934 1058.31 641.697 L 1057.81 640.831 Z  M 1050.105 641.572 C 1049.839 641.501 1049.566 641.659 1049.494 641.925 L 1049.234 642.886 C 1049.18 643.061 1049.226 643.252 1049.354 643.383 C 1049.482 643.514 1049.671 643.565 1049.847 643.515 C 1050.023 643.466 1050.158 643.324 1050.199 643.146 L 1050.461 642.181 C 1050.53 641.915 1050.371 641.643 1050.106 641.572 L 1050.105 641.572 Z  M 1056.176 622.546 C 1056.533 622.681 1056.883 622.834 1057.225 623.005 C 1057.472 623.13 1057.774 623.031 1057.899 622.785 C 1058.022 622.537 1057.922 622.236 1057.676 622.111 C 1057.302 621.924 1056.918 621.757 1056.525 621.611 C 1056.356 621.536 1056.159 621.562 1056.014 621.677 C 1055.867 621.791 1055.797 621.978 1055.832 622.16 C 1055.865 622.343 1055.998 622.492 1056.176 622.546 Z " fill="rgb(141,108,159)"/><path d=" M 1060.631 624.255 C 1060.301 623.925 1059.951 623.615 1059.586 623.325 C 1059.446 623.2 1059.248 623.162 1059.073 623.228 C 1058.897 623.293 1058.772 623.452 1058.752 623.638 C 1058.73 623.824 1058.815 624.007 1058.971 624.111 C 1059.305 624.376 1059.624 624.66 1059.926 624.961 C 1063.846 628.892 1064.029 635.195 1060.346 639.347 C 1059.886 638.362 1059.107 637.56 1058.135 637.072 C 1059.465 636.072 1060.44 634.791 1059.725 631.957 L 1058.346 625.857 C 1058.761 625.385 1058.79 624.688 1058.415 624.183 C 1058.04 623.679 1057.363 623.506 1056.792 623.769 C 1056.221 624.032 1055.912 624.658 1056.051 625.271 L 1053.685 627.951 L 1053.365 627.951 C 1053.085 627.886 1052.8 627.886 1052.5 627.886 C 1052.27 627.886 1052.035 627.886 1051.805 627.911 L 1051.336 627.911 L 1048.949 625.271 C 1048.619 624.897 1048.106 624.738 1047.622 624.862 C 1047.138 624.985 1046.764 625.37 1046.654 625.857 L 1045.276 631.941 C 1044.571 634.752 1045.506 636.041 1046.811 637.027 C 1045.833 637.492 1045.042 638.274 1044.565 639.246 C 1041.684 635.909 1041.196 631.126 1043.343 627.275 C 1045.488 623.424 1049.811 621.324 1054.164 622.018 C 1054.437 622.055 1054.689 621.868 1054.733 621.596 C 1054.776 621.324 1054.595 621.068 1054.324 621.018 C 1049.394 620.215 1044.51 622.688 1042.239 627.136 C 1039.966 631.585 1040.825 636.992 1044.365 640.517 C 1044.418 640.556 1044.477 640.591 1044.535 640.621 C 1044.586 640.628 1044.639 640.628 1044.689 640.621 C 1044.75 640.621 1044.809 640.609 1044.865 640.586 L 1044.91 640.586 C 1044.95 640.568 1044.987 640.545 1045.02 640.517 L 1045.045 640.517 C 1045.072 640.485 1045.095 640.449 1045.115 640.412 C 1045.125 640.396 1045.133 640.378 1045.141 640.361 C 1045.498 639.122 1046.463 638.152 1047.699 637.787 C 1047.724 637.777 1047.747 637.766 1047.769 637.752 C 1049.22 638.537 1050.851 638.929 1052.5 638.886 C 1054.109 638.906 1055.696 638.513 1057.11 637.746 C 1058.342 638.115 1059.303 639.085 1059.66 640.322 C 1059.73 640.537 1059.934 640.677 1060.16 640.666 L 1060.301 640.666 C 1060.434 640.667 1060.561 640.615 1060.654 640.521 C 1065.14 636.023 1065.129 628.74 1060.631 624.256 L 1060.631 624.255 Z  M 1048 636.63 C 1046.57 635.675 1045.609 634.8 1046.27 632.175 L 1047.65 626.082 C 1047.676 625.96 1047.769 625.864 1047.891 625.835 L 1047.974 625.835 C 1048.068 625.835 1048.158 625.875 1048.22 625.947 L 1050.186 628.172 C 1049.905 628.236 1049.63 628.316 1049.366 628.406 C 1049.002 628.528 1048.648 628.676 1048.304 628.847 C 1048.066 628.974 1047.973 629.268 1048.094 629.509 C 1048.213 629.751 1048.503 629.853 1048.75 629.742 C 1049.055 629.589 1049.369 629.46 1049.689 629.351 C 1050.277 629.151 1050.884 629.016 1051.5 628.946 L 1051.805 628.915 L 1052.525 628.915 C 1052.775 628.915 1053.025 628.915 1053.275 628.95 L 1053.506 628.95 C 1054.295 629.032 1055.069 629.224 1055.805 629.52 C 1056.127 629.653 1056.44 629.812 1056.74 629.991 C 1056.974 630.097 1057.25 630.009 1057.379 629.786 C 1057.507 629.564 1057.447 629.281 1057.24 629.13 C 1056.899 628.926 1056.543 628.748 1056.176 628.597 C 1055.734 628.419 1055.279 628.276 1054.815 628.171 L 1056.801 625.937 C 1056.882 625.844 1057.009 625.804 1057.129 625.833 C 1057.249 625.864 1057.342 625.96 1057.369 626.081 L 1058.756 632.186 C 1059.414 634.8 1058.449 635.686 1057.025 636.63 C 1055.671 637.48 1054.099 637.917 1052.5 637.886 C 1050.91 637.911 1049.347 637.476 1048 636.63 Z " fill="rgb(141,108,159)"/><path d=" M 1054.145 634.531 L 1053.85 634.826 C 1053.757 634.92 1053.63 634.972 1053.497 634.972 C 1053.365 634.972 1053.238 634.92 1053.145 634.826 L 1053 634.681 L 1053 633.746 C 1053.391 633.519 1053.581 633.058 1053.464 632.622 C 1053.347 632.185 1052.952 631.882 1052.5 631.881 C 1052.047 631.881 1051.65 632.185 1051.533 632.621 C 1051.416 633.058 1051.608 633.52 1052 633.746 L 1052 634.676 L 1051.855 634.822 C 1051.66 635.015 1051.345 635.015 1051.15 634.822 L 1050.855 634.527 C 1050.656 634.358 1050.361 634.369 1050.176 634.552 C 1049.992 634.738 1049.981 635.034 1050.151 635.232 L 1050.446 635.527 C 1051.009 636.088 1051.913 636.112 1052.505 635.582 C 1053.098 636.113 1054.001 636.088 1054.565 635.527 L 1054.86 635.232 C 1055.029 635.033 1055.017 634.738 1054.834 634.552 C 1054.648 634.368 1054.353 634.357 1054.154 634.527 L 1054.145 634.531 Z " fill="rgb(141,108,159)"/></g></g></svg>